
<svg id="レイヤー_1" data-name="レイヤー 1" xmlns="http://www.w3.org/2000/svg" viewBox="0 0 1000 35"><defs><style>.cls-1{fill:#fff;}</style></defs><title>1</title><path class="cls-1" d="M-10,14.89A12.36,12.36,0,0,1-2.38,7.26c6.29-2.46,52.68-2,52.68-2S63.22.86,71.17.36s18.55,2,18.55,2A128,128,0,0,1,118.21.12c14.25.74,16.9,3.69,16.9,3.69A133.49,133.49,0,0,1,159.62,1.6c11.93.25,16.56,4.19,16.56,4.19S189.44,1.84,202,2.58,217.93,5,217.93,5a31.3,31.3,0,0,1,9.61-1.72c5,0,7.62,1.72,7.62,1.72s15.9-3.69,38.43-3.2,36.77,3.45,36.77,3.45,12.59-3,23.52-2.71,22.53,4.19,22.53,4.19,40.75-5.91,49.69-3,16.56,6.4,16.9,10.59C423.66,14.15-8.26,14.89-10,14.89Z"/><path class="cls-1" d="M1423,14.89a12.36,12.36,0,0,0-7.62-7.63c-6.29-2.46-52.68-2-52.68-2S1349.78.86,1341.83.36s-18.55,2-18.55,2A128,128,0,0,0,1294.79.12c-14.25.74-16.9,3.69-16.9,3.69a133.49,133.49,0,0,0-24.52-2.22c-11.93.25-16.56,4.19-16.56,4.19s-13.25-3.94-25.84-3.2S1195.07,5,1195.07,5a31.3,31.3,0,0,0-9.61-1.72c-5,0-7.62,1.72-7.62,1.72s-15.9-3.69-38.43-3.2-36.77,3.45-36.77,3.45-12.59-3-23.52-2.71-22.53,4.19-22.53,4.19-40.75-5.91-49.69-3S990.33,10.21,990,14.4C989.34,14.15,1421.26,14.89,1423,14.89Z"/><path class="cls-1" d="M322,14.89a12.36,12.36,0,0,1,7.62-7.63c6.29-2.46,52.68-2,52.68-2S395.22.86,403.17.36s18.55,2,18.55,2A128,128,0,0,1,450.21.12c14.25.74,16.9,3.69,16.9,3.69A133.49,133.49,0,0,1,491.62,1.6c11.93.25,16.56,4.19,16.56,4.19S521.44,1.84,534,2.58,549.93,5,549.93,5a31.3,31.3,0,0,1,9.61-1.72c5,0,7.62,1.72,7.62,1.72s15.9-3.69,38.43-3.2,36.77,3.45,36.77,3.45,12.59-3,23.52-2.71,22.53,4.19,22.53,4.19,40.75-5.91,49.69-3,16.56,6.4,16.9,10.59C755.66,14.15,323.74,14.89,322,14.89Z"/><path class="cls-1" d="M640,14.89a11.92,11.92,0,0,1,6.48-7.63c5.35-2.46,44.77-2,44.77-2S702.22.86,709,.36s15.77,2,15.77,2A93,93,0,0,1,749,.12c12.11.74,14.36,3.69,14.36,3.69A97.07,97.07,0,0,1,784.16,1.6c10.14.25,14.08,4.19,14.08,4.19s11.26-3.94,22-3.2S833.71,5,833.71,5a23.16,23.16,0,0,1,8.17-1.72A11.21,11.21,0,0,1,848.35,5S861.87,1.35,881,1.84s31.25,3.45,31.25,3.45,10.7-3,20-2.71,19.15,4.19,19.15,4.19,34.63-5.91,42.23-3,14.08,6.4,14.36,10.59C1008.56,14.15,641.48,14.89,640,14.89Z"/><rect class="cls-1" x="-39" y="14" width="1084" height="21"/></svg>
