
<svg id="レイヤー_1" data-name="レイヤー 1" xmlns="http://www.w3.org/2000/svg" viewBox="0 0 1848 490"><defs><style>.cls-1{fill:#e2e2e0;}.cls-2{fill:#fff;}.cls-3{fill:#444;}.cls-4{fill:#dd5f2c;}.cls-5{fill:#68493e;}.cls-6{fill:#f47456;}.cls-7{fill:#f9b1a5;}.cls-8{fill:#754c2e;}.cls-9{fill:#365489;}.cls-10{fill:#c9c9c9;}.cls-11{fill:#405ca3;}.cls-12{fill:#ffd95f;}.cls-13{fill:#636363;}</style></defs><title>2</title><path class="cls-1" d="M1869.36,496s-6.24-65.28-35.87-96.36-98-24.87-98-24.87-60.82-56-98.25-62.17-87.33,24.87-87.33,24.87-67.06-37.3-134.12-28-79.54,46.63-79.54,46.63-59.26-31.08-115.41-28S1131.76,359,1131.76,359s-51.29-27.75-110.55-18.43S948.13,359,948.13,359s-23.61-9.1-47-9.1-35.87,21.76-35.87,21.76S790.4,325,684.36,331.26s-163.68,23.67-163.68,23.67S452,337.47,400.52,340.58s-106,52.84-106,52.84-191.82-74.6-233.93-37.3-78,80.82-79.54,133.66C-22.12,486.67,1861.17,496,1869.36,496Z"/><circle class="cls-2" cx="874.31" cy="233.62" r="54.73" transform="translate(606.91 1098.19) rotate(-87.77)"/><circle class="cls-3" cx="886.65" cy="222.32" r="5.26"/><circle class="cls-3" cx="851.92" cy="222.32" r="5.26"/><circle class="cls-2" cx="877.32" cy="344.22" r="72.47" transform="translate(499.27 1207.51) rotate(-87.77)"/><circle class="cls-4" cx="868.13" cy="315.31" r="6.31" transform="translate(-5.62 15.93) rotate(-1.05)"/><circle class="cls-4" cx="868.53" cy="337.41" r="6.31" transform="translate(-6.03 15.94) rotate(-1.05)"/><path class="cls-4" d="M873,225.48s8.42,3.83,3.16,17.89c-17.89-1.28-32.62,0-33.68-5.11S873,225.48,873,225.48Z"/><path class="cls-3" d="M868.76,243.37s9.47-3.16,14.73-2.1,14.73,7.37,14.73,15.79c-11.58,2.1-15.79,2.1-21-2.1S868.76,243.37,868.76,243.37Z"/><path class="cls-3" d="M874,244.42s-9.47-3.16-14.73-2.1-14.73,7.37-14.73,15.79c11.58,2.1,15.79,2.1,21-2.1S874,244.42,874,244.42Z"/><path class="cls-3" d="M860.67,175.93S848.12,173,838.6,171.4c-9.92.78-5.31,17,35.26,23s54.32,6.68,58-.85-16.79-2-29.46-13.92c4.78-13.87,5.71-19.42,5.71-19.42s-12.67-11.91-27.08-13.52-12.43,1.17-12.43,1.17-5.82,5.54-8.76,23"/><polygon class="cls-5" points="919.27 293.88 952.95 226.53 958.21 223.37 946.64 249.68 974 233.9 943.48 257.05 921.38 302.3 919.27 293.88"/><polygon class="cls-5" points="836.13 300.2 801.4 242.32 794.04 238.11 805.61 257.05 785.62 244.42 806.67 263.36 832.98 304.41 836.13 300.2"/><rect class="cls-6" x="1002.97" y="148.37" width="233.77" height="249.5"/><path class="cls-7" d="M1106.74,149.5H987.24l50.57-109h76.42S1107.12,149.5,1106.74,149.5Z"/><path class="cls-7" d="M1138.59,149.5h119.51l-50.57-109h-76.42S1138.21,149.5,1138.59,149.5Z"/><rect class="cls-7" x="1092.88" y="40.48" width="71.93" height="107.89"/><rect class="cls-8" x="1149.08" y="302.35" width="56.19" height="96.65"/><rect class="cls-9" x="1034.44" y="186.59" width="32.59" height="37.04"/><rect class="cls-9" x="1077.15" y="186.59" width="32.59" height="37.04"/><rect class="cls-9" x="1119.86" y="186.59" width="32.59" height="37.04"/><rect class="cls-9" x="1162.56" y="186.59" width="32.59" height="37.04"/><rect class="cls-9" x="1034.44" y="233.79" width="32.59" height="37.04"/><rect class="cls-9" x="1034.44" y="311.34" width="84.29" height="32.54"/><rect class="cls-9" x="1077.15" y="233.79" width="32.59" height="37.04"/><rect class="cls-9" x="1119.86" y="233.79" width="32.59" height="37.04"/><rect class="cls-9" x="1162.56" y="233.79" width="32.59" height="37.04"/><polygon class="cls-6" points="1086.6 61.84 1023.2 156.93 1086.6 156.93 1150 156.93 1086.6 61.84"/><rect class="cls-10" x="1328.97" y="148.37" width="233.77" height="249.5"/><path class="cls-11" d="M1432.74,149.5H1313.24l50.57-109h76.42S1433.12,149.5,1432.74,149.5Z"/><path class="cls-11" d="M1464.59,149.5h119.51l-50.57-109h-76.42S1464.21,149.5,1464.59,149.5Z"/><rect class="cls-11" x="1418.88" y="40.48" width="71.93" height="107.89"/><rect class="cls-8" x="1475.08" y="302.35" width="56.19" height="96.65"/><rect class="cls-9" x="1360.44" y="186.59" width="32.59" height="37.04"/><rect class="cls-9" x="1403.15" y="186.59" width="32.59" height="37.04"/><rect class="cls-9" x="1445.86" y="186.59" width="32.59" height="37.04"/><rect class="cls-9" x="1488.56" y="186.59" width="32.59" height="37.04"/><rect class="cls-9" x="1360.44" y="233.79" width="32.59" height="37.04"/><rect class="cls-9" x="1360.44" y="311.34" width="84.29" height="32.54"/><rect class="cls-9" x="1403.15" y="233.79" width="32.59" height="37.04"/><rect class="cls-9" x="1445.86" y="233.79" width="32.59" height="37.04"/><rect class="cls-9" x="1488.56" y="233.79" width="32.59" height="37.04"/><polygon class="cls-10" points="1412.6 61.84 1349.2 156.93 1412.6 156.93 1476 156.93 1412.6 61.84"/><rect class="cls-5" x="333.15" y="61.84" width="42.71" height="100.03"/><rect class="cls-12" x="105" y="202.32" width="215.79" height="185.44"/><polygon class="cls-12" points="409.57 203.44 300.46 71.96 300.46 70.83 299.99 71.39 299.52 70.83 299.52 71.96 191.61 202 191.54 202 191.54 202.09 190.41 203.44 191.54 203.44 191.54 387.76 407.32 387.76 407.32 203.44 409.57 203.44"/><rect class="cls-8" x="269.09" y="265.26" width="67.43" height="121.38"/><rect class="cls-9" x="270.21" y="157.37" width="67.43" height="65.19"/><rect class="cls-12" x="299.43" y="157.37" width="11.24" height="65.19"/><rect class="cls-12" x="299.43" y="156.24" width="10.11" height="68.56" transform="translate(495.01 -113.97) rotate(90)"/><polygon class="cls-5" points="212.89 70.83 300.56 70.83 191.54 202.32 105 202.32 212.89 70.83"/><rect class="cls-5" x="328.65" y="55.09" width="52.82" height="14.61"/><circle class="cls-2" cx="93.98" cy="269.11" r="48.88"/><circle class="cls-2" cx="101.5" cy="365.94" r="62.04"/><path class="cls-4" d="M97.74,262.53s-7.52,2.82-2.82,13.16c16-.94,29.14,0,30.08-3.76S97.74,262.53,97.74,262.53Z"/><circle class="cls-3" cx="79.88" cy="262.53" r="4.7"/><circle class="cls-3" cx="115.61" cy="257.83" r="4.7"/><path class="cls-12" d="M92.1,221.17s-7.52,28.2-43.24,38.54A382.25,382.25,0,0,1,31,215.53s16.92-16.92,20.68-18.8C59.06,198.72,92.56,220.2,92.1,221.17Z"/><circle class="cls-13" cx="77.06" cy="289.79" r="2.82"/><circle class="cls-13" cx="91.16" cy="292.61" r="2.82"/><circle class="cls-13" cx="103.38" cy="292.61" r="2.82"/><circle class="cls-13" cx="115.61" cy="288.85" r="2.82"/><circle class="cls-13" cx="124.07" cy="280.39" r="2.82"/><path class="cls-4" d="M129.08,307.66c3.46.9,12.85,3.76,11,11.28s-18.8,16.92-42.3,16.92S57.32,333,57.32,324.58s4.7-15,13.16-15,17.86,4.7,31,2.82S121.87,305.78,129.08,307.66Z"/><path class="cls-4" d="M64.84,310.48s-4.7,4.7-5.64,7.52,2.82,47,8.46,51.7,15,2.82,16.92-.94-9.4-43.24-5.64-47.94S70.48,308.6,64.84,310.48Z"/><circle class="cls-4" cx="111.84" cy="348.08" r="5.64"/><circle class="cls-4" cx="111.84" cy="367.82" r="5.64"/></svg>
