
<svg id="レイヤー_1" data-name="レイヤー 1" xmlns="http://www.w3.org/2000/svg" viewBox="0 0 1840 390"><defs><style>.cls-1{fill:#e2e2e0;}.cls-2{fill:#197f6c;}.cls-3{fill:#633b28;}.cls-4{fill:#fff;}.cls-5{fill:#f4b20c;}.cls-6{fill:none;stroke:#fff;stroke-linecap:round;stroke-linejoin:round;stroke-width:4px;}.cls-7{fill:#c9c9c9;}.cls-8{fill:#398e2d;}.cls-9{fill:#ed480f;}</style></defs><title>3</title><path class="cls-1" d="M988.27,388.28s-3.33-19.89-19.13-29.36-52.27-7.58-52.27-7.58-32.44-17-52.41-18.94S817.87,340,817.87,340s-35.77-11.37-71.54-8.52-42.43,14.21-42.43,14.21-31.61-9.47-61.56-8.52-47.51,9.4-47.51,9.4a170.94,170.94,0,0,0-59-5.62c-31.61,2.84-39,5.62-39,5.62a133.87,133.87,0,0,0-25.07-2.77c-12.48,0-19.13,6.63-19.13,6.63s-39.93-14.21-96.5-12.31-87.31,7.21-87.31,7.21-36.64-5.32-64.09-4.37S148.21,357,148.21,357,45.89,334.3,23.43,345.66-18.17,370.29-19,386.39C-20.66,385.44,983.9,388.28,988.27,388.28Z"/><path class="cls-1" d="M1989.27,388.28s-3.33-19.89-19.13-29.36-52.27-7.58-52.27-7.58-32.44-17-52.41-18.94-46.58,7.58-46.58,7.58-35.77-11.37-71.54-8.52-42.43,14.21-42.43,14.21-31.61-9.47-61.56-8.52-47.51,9.4-47.51,9.4a170.94,170.94,0,0,0-59-5.62c-31.61,2.84-39,5.62-39,5.62a133.87,133.87,0,0,0-25.07-2.77c-12.48,0-19.13,6.63-19.13,6.63s-39.93-14.21-96.5-12.31-87.31,7.21-87.31,7.21-36.64-5.32-64.09-4.37-56.57,16.1-56.57,16.1-102.32-22.73-124.78-11.37S982.83,370.29,982,386.39C980.34,385.44,1984.9,388.28,1989.27,388.28Z"/><path class="cls-2" d="M506.92,86.18l-18.76,29.59c-1,1.51-.08,3.72,1.48,3.72h37.53c1.56,0,2.44-2.2,1.48-3.72L509.89,86.18A1.68,1.68,0,0,0,506.92,86.18Z"/><path class="cls-2" d="M506,101.35l-30,47.35c-1.54,2.42-.13,5.95,2.37,5.95h60c2.5,0,3.91-3.53,2.37-5.95l-30-47.35A2.69,2.69,0,0,0,506,101.35Z"/><path class="cls-2" d="M504.26,122.15,451.71,205c-2.69,4.24-.23,10.41,4.15,10.41H560.95c4.38,0,6.84-6.17,4.15-10.41l-52.54-82.86A4.7,4.7,0,0,0,504.26,122.15Z"/><rect class="cls-3" x="487.15" y="240.93" width="48.85" height="149.07"/><rect class="cls-3" x="770.15" y="240.93" width="48.85" height="149.07"/><rect class="cls-3" x="1658.15" y="240.93" width="48.85" height="149.07"/><path class="cls-2" d="M502.77,151.52,431.47,264c-3.65,5.75-.31,14.13,5.63,14.13H579.71c5.94,0,9.28-8.38,5.63-14.13L514,151.52C511.18,147,505.63,147,502.77,151.52Z"/><path class="cls-2" d="M789.06,86.18,770.3,115.77c-1,1.51-.08,3.72,1.48,3.72h37.53c1.56,0,2.44-2.2,1.48-3.72L792,86.18A1.68,1.68,0,0,0,789.06,86.18Z"/><path class="cls-2" d="M788.17,101.35l-30,47.35c-1.54,2.42-.13,5.95,2.37,5.95h60c2.5,0,3.91-3.53,2.37-5.95l-30-47.35A2.69,2.69,0,0,0,788.17,101.35Z"/><path class="cls-2" d="M786.39,122.15,733.85,205c-2.69,4.24-.23,10.41,4.15,10.41H843.09c4.38,0,6.84-6.17,4.15-10.41L794.7,122.15A4.7,4.7,0,0,0,786.39,122.15Z"/><path class="cls-2" d="M784.91,151.52,713.61,264c-3.65,5.75-.31,14.13,5.63,14.13H861.85c5.94,0,9.28-8.38,5.63-14.13L796.18,151.52C793.32,147,787.77,147,784.91,151.52Z"/><path class="cls-4" d="M789.66,83.39,778.4,100.51a1.36,1.36,0,0,0,.89,2.15l3.27.91a29.69,29.69,0,0,0,16,0l3.27-.91a1.36,1.36,0,0,0,.89-2.15L791.43,83.39A1.07,1.07,0,0,0,789.66,83.39Z"/><rect class="cls-4" x="756.51" y="146.96" width="33.03" height="8.26" rx="4.13" ry="4.13"/><rect class="cls-4" x="786.42" y="203.77" width="49.55" height="12.39" rx="6.19" ry="6.19"/><path class="cls-5" d="M509.45,74.18l2.34,4.74a1.05,1.05,0,0,0,.79.58l5.23.76a1.05,1.05,0,0,1,.58,1.8l-3.79,3.69a1.05,1.05,0,0,0-.3.93l.89,5.21A1.05,1.05,0,0,1,513.67,93L509,90.55a1.05,1.05,0,0,0-1,0L503.33,93a1.05,1.05,0,0,1-1.53-1.11l.89-5.21a1.05,1.05,0,0,0-.3-.93l-3.79-3.69a1.05,1.05,0,0,1,.58-1.8l5.23-.76a1.05,1.05,0,0,0,.79-.58l2.34-4.74A1.05,1.05,0,0,1,509.45,74.18Z"/><path class="cls-6" d="M519,102s-4,29-36.5,36.5"/><path class="cls-6" d="M490,127s8,60,64,57"/><path class="cls-6" d="M551.5,184S529,249,443,245.5"/><path class="cls-6" d="M471,174.5S485,238,575,247"/><circle class="cls-5" cx="492" cy="180" r="5"/><circle class="cls-7" cx="513.5" cy="201.5" r="5"/><circle class="cls-8" cx="473" cy="224" r="5"/><circle class="cls-9" cx="520" cy="151" r="5"/><circle class="cls-9" cx="528" cy="257" r="5"/><path class="cls-2" d="M1675.92,86.18l-18.76,29.59c-1,1.51-.08,3.72,1.48,3.72h37.53c1.56,0,2.44-2.2,1.48-3.72l-18.76-29.59A1.68,1.68,0,0,0,1675.92,86.18Z"/><path class="cls-2" d="M1675,101.35l-30,47.35c-1.54,2.42-.13,5.95,2.37,5.95h60c2.5,0,3.91-3.53,2.37-5.95l-30-47.35A2.69,2.69,0,0,0,1675,101.35Z"/><path class="cls-2" d="M1673.26,122.15,1620.71,205c-2.69,4.24-.23,10.41,4.15,10.41h105.08c4.38,0,6.84-6.17,4.15-10.41l-52.54-82.86A4.7,4.7,0,0,0,1673.26,122.15Z"/><path class="cls-2" d="M1671.77,151.52,1600.47,264c-3.65,5.75-.31,14.13,5.63,14.13h142.61c5.94,0,9.28-8.38,5.63-14.13L1683,151.52C1680.18,147,1674.63,147,1671.77,151.52Z"/><path class="cls-5" d="M1678.45,74.18l2.34,4.74a1.05,1.05,0,0,0,.79.58l5.23.76a1.05,1.05,0,0,1,.58,1.8l-3.79,3.69a1.05,1.05,0,0,0-.3.93l.89,5.21a1.05,1.05,0,0,1-1.53,1.11L1678,90.55a1.05,1.05,0,0,0-1,0L1672.33,93a1.05,1.05,0,0,1-1.53-1.11l.89-5.21a1.05,1.05,0,0,0-.3-.93l-3.79-3.69a1.05,1.05,0,0,1,.58-1.8l5.23-.76a1.05,1.05,0,0,0,.79-.58l2.34-4.74A1.05,1.05,0,0,1,1678.45,74.18Z"/><path class="cls-6" d="M1688,102s-4,29-36.5,36.5"/><path class="cls-6" d="M1659,127s8,60,64,57"/><path class="cls-6" d="M1720.5,184S1698,249,1612,245.5"/><path class="cls-6" d="M1640,174.5s14,63.5,104,72.5"/><circle class="cls-5" cx="1661" cy="180" r="5"/><circle class="cls-7" cx="1682.5" cy="201.5" r="5"/><circle class="cls-8" cx="1642" cy="224" r="5"/><circle class="cls-9" cx="1689" cy="151" r="5"/><circle class="cls-9" cx="1697" cy="257" r="5"/></svg>
