
<svg id="レイヤー_1" data-name="レイヤー 1" xmlns="http://www.w3.org/2000/svg" viewBox="0 0 1000 230"><defs><style>.cls-1{fill:#e2e2e0;}.cls-2{fill:#222a35;opacity:0.6;}</style></defs><title>5</title><path class="cls-1" d="M987.27,228.28s-3.33-19.89-19.13-29.36-52.27-7.58-52.27-7.58-32.44-17-52.41-18.94S816.87,180,816.87,180s-35.77-11.37-71.54-8.52-42.43,14.21-42.43,14.21-31.61-9.47-61.56-8.52-47.51,9.4-47.51,9.4a170.94,170.94,0,0,0-59-5.62c-31.61,2.84-39,5.62-39,5.62a133.87,133.87,0,0,0-25.07-2.77c-12.48,0-19.13,6.63-19.13,6.63s-39.93-14.21-96.5-12.31-87.31,7.21-87.31,7.21-36.64-5.32-64.09-4.37S147.21,197,147.21,197,44.89,174.3,22.43,185.66-19.17,210.29-20,226.39C-21.66,225.44,982.9,228.28,987.27,228.28Z"/><path class="cls-1" d="M1139.27,228.28s-3.33-19.89-19.13-29.36-52.27-7.58-52.27-7.58-32.44-17-52.41-18.94S968.87,180,968.87,180s-35.77-11.37-71.54-8.52-42.43,14.21-42.43,14.21-31.61-9.47-61.56-8.52-47.51,9.4-47.51,9.4a170.94,170.94,0,0,0-59-5.62c-31.61,2.84-39,5.62-39,5.62a133.87,133.87,0,0,0-25.07-2.77c-12.48,0-19.13,6.63-19.13,6.63s-39.93-14.21-96.5-12.31-87.31,7.21-87.31,7.21-36.64-5.32-64.09-4.37S299.21,197,299.21,197,196.89,174.3,174.43,185.66,132.83,210.29,132,226.39C130.34,225.44,1134.9,228.28,1139.27,228.28Z"/><path class="cls-2" d="M266,114.36h4.16c2.85,0,4.45-4,2.7-6.78L252,74.79h3.43c1.63,0,2.54-2.3,1.54-3.87l-12.06-19h3.18c1,0,1.59-1.44,1-2.42l-5.49-8.66a1,1,0,0,0,.22-1.28l-7.33-11.15a.7.7,0,0,0-1.16,0L228,39.54a1,1,0,0,0,.22,1.28l-5.49,8.66c-.62,1-.05,2.42,1,2.42h3.18L215.4,70a2.69,2.69,0,0,0,1,5.17h3.12L199,107.59c-1.75,2.76-.15,6.78,2.7,6.78h4.16l-20,31.62c-2.37,3.74-.2,9.2,3.67,9.2h41.05V234h10.76V155.18h41.05c3.87,0,6-5.46,3.67-9.2Z"/><path class="cls-2" d="M158.1,110.19h2.63c1.8,0,2.81-2.54,1.71-4.28L149.3,85.19h2.17c1,0,1.61-1.45,1-2.45l-7.62-12h2c.64,0,1-.91.61-1.53L144,63.74a.6.6,0,0,0,.14-.81l-4.63-7a.44.44,0,0,0-.73,0l-4.63,7a.6.6,0,0,0,.14.81l-3.47,5.47c-.39.62,0,1.53.61,1.53h2L126,82.37a1.69,1.69,0,0,0,.55,3.3h2.06L115.8,105.91c-1.1,1.74-.09,4.28,1.71,4.28h2.63l-12.66,20c-1.5,2.36-.13,5.81,2.32,5.81h23.95v78h10.76V136h23.95c2.44,0,3.82-3.45,2.32-5.81Z"/><path class="cls-2" d="M358.1,129.19h2.63c1.8,0,2.81-2.54,1.71-4.28L349.3,104.19h2.17c1,0,1.61-1.45,1-2.45l-7.62-12h2c.64,0,1-.91.61-1.53L344,82.74a.6.6,0,0,0,.14-.81l-4.63-7a.44.44,0,0,0-.73,0l-4.63,7a.6.6,0,0,0,.14.81l-3.47,5.47c-.39.62,0,1.53.61,1.53h2L326,101.37a1.69,1.69,0,0,0,.55,3.3h2.06L315.8,124.91c-1.1,1.74-.09,4.28,1.71,4.28h2.63l-12.66,20c-1.5,2.36-.13,5.81,2.32,5.81h23.95v78h10.76V155h23.95c2.44,0,3.82-3.45,2.32-5.81Z"/><path class="cls-2" d="M550.74,114.36h4.16c2.85,0,4.45-4,2.7-6.78l-20.8-32.8h3.43c1.63,0,2.54-2.3,1.54-3.87l-12.06-19h3.18c1,0,1.59-1.44,1-2.42L521.66,30.21a1.09,1.09,0,0,0-1.93,0L507.51,49.48c-.62,1-.05,2.42,1,2.42h3.18L500.18,70a2.69,2.69,0,0,0,1,5.17h3.12l-20.56,32.42c-1.75,2.76-.15,6.78,2.7,6.78h4.16l-20,31.62c-2.37,3.74-.2,9.2,3.67,9.2h41.05V234h10.76V155.18h41.05c3.87,0,6-5.46,3.67-9.2Z"/><path class="cls-2" d="M833.74,114.36h4.16c2.85,0,4.45-4,2.7-6.78l-20.8-32.8h3.43c1.63,0,2.54-2.3,1.54-3.87l-12.06-19h3.18c1,0,1.59-1.44,1-2.42L804.66,30.21a1.09,1.09,0,0,0-1.93,0L790.51,49.48c-.62,1-.05,2.42,1,2.42h3.18L783.18,70a2.69,2.69,0,0,0,1,5.17h3.12l-20.56,32.42c-1.75,2.76-.15,6.78,2.7,6.78h4.16l-20,31.62c-2.37,3.74-.2,9.2,3.67,9.2h41.05V234h10.76V155.18h41.05c3.87,0,6-5.46,3.67-9.2Z"/><path class="cls-2" d="M626.1,110.19h2.63c1.8,0,2.81-2.54,1.71-4.28L617.3,85.19h2.17c1,0,1.61-1.45,1-2.45l-7.62-12h2c.64,0,1-.91.61-1.53L612,63.74a.6.6,0,0,0,.14-.81l-4.63-7a.44.44,0,0,0-.73,0l-4.63,7a.6.6,0,0,0,.14.81l-3.47,5.47c-.39.62,0,1.53.61,1.53h2L594,82.37a1.69,1.69,0,0,0,.55,3.3h2.06L583.8,105.91c-1.1,1.74-.09,4.28,1.71,4.28h2.63l-12.66,20c-1.5,2.36-.13,5.81,2.32,5.81h23.95v78h10.76V136h23.95c2.44,0,3.82-3.45,2.32-5.81Z"/><polygon class="cls-2" points="439.78 93.96 439.78 93.48 396.62 93.48 396.62 93.96 379.52 122.15 381.84 122.15 381.84 184.82 425.59 184.82 425.88 184.82 429.63 184.82 444.4 184.82 454.26 184.82 454.26 122.15 456.88 122.15 439.78 93.96"/><polygon class="cls-2" points="931.62 109.14 936.31 109.14 902.36 81.48 902.36 81 902.06 81.24 901.76 81 901.76 81.48 867.81 109.14 871.91 109.14 871.91 184.52 878.12 184.52 878.12 184.82 892.89 184.82 892.89 184.52 931.62 184.52 931.62 109.14"/><polygon class="cls-2" points="705.76 91.7 694.52 91.7 685.65 91.7 681.22 91.7 675.6 91.7 661.12 91.7 647.82 120.38 651.96 120.38 651.96 185.7 690.38 185.7 690.38 186 705.16 186 705.16 185.7 713.44 185.7 713.44 120.38 719.06 120.38 705.76 91.7"/><polygon class="cls-2" points="81.24 123.63 81.24 99.39 82.72 99.39 82.72 95.55 68.83 95.55 68.83 99.39 70.01 99.39 70.01 110.34 61.41 99.98 61.41 99.71 61.44 99.68 38.38 99.68 10 134.27 10 183.04 32.76 183.04 66.76 183.04 89.52 183.04 89.52 134.56 90.11 134.56 81.03 123.63 81.24 123.63"/></svg>
