
<svg id="レイヤー_1" data-name="レイヤー 1" xmlns="http://www.w3.org/2000/svg" viewBox="0 0 1000 222"><defs><style>.cls-1{fill:#fff;opacity:0.1;}</style></defs><title>6</title><path class="cls-1" d="M7.29,97,117.71,36.54a15.89,15.89,0,0,1,16.24.58l118.17,76.15a15.89,15.89,0,0,0,17.6-.26l66.78-45.86a15.89,15.89,0,0,1,15.75-1.28l50,23.46a15.89,15.89,0,0,0,15.13-.88L516,27.19a15.89,15.89,0,0,1,18.81,1.52l135.21,87.76a15.89,15.89,0,0,0,21.43-.51l76.19-43a15.89,15.89,0,0,1,18.49-2.54l138.38,74a15.89,15.89,0,0,0,16.39-.85l63.43-42.87c12.34-8.34,28.35,3.36,24.14,17.65l-27.15,92.19A15.89,15.89,0,0,1,986.12,222H16.39A15.89,15.89,0,0,1,.51,206.59C-.26,181.2-1.61,131.31-1,110.45A15.88,15.88,0,0,1,7.29,97Z"/></svg>
