
<svg xmlns="http://www.w3.org/2000/svg" viewBox="0 0 254 100"><defs><style>.cls-1{fill:#f4b20d;}.cls-2,.cls-7,.cls-8,.cls-9{fill:none;stroke-linecap:round;stroke-linejoin:round;}.cls-2,.cls-3{stroke:#fff;}.cls-2{stroke-width:4px;}.cls-3{fill:#fff;stroke-miterlimit:10;}.cls-4{fill:#f7eac6;}.cls-5{fill:#e53c20;}.cls-6{fill:#5b221a;}.cls-7{stroke:#913529;}.cls-8{stroke:#5b221a;}.cls-8,.cls-9{stroke-width:2px;}.cls-9{stroke:#e53c20;}</style></defs><title>santa</title><g id="santa"><path class="cls-1" d="M15.81,26.54s6-18.73,25-20c15-1,28.87,5.8,32,24s-5,25-21,30c-9.09,2.84-19.1-.88-28.5-11.5A29.44,29.44,0,0,1,15.81,26.54Z"/><line class="cls-2" x1="45.81" y1="86.54" x2="42.81" y2="96.54"/><line class="cls-2" x1="60.81" y1="86.54" x2="63.98" y2="96.54"/><path class="cls-3" d="M65.31,40s3,5-3,4-5.58-4.25-5.58-4.25l-8-15L61.06,21,72.31,35Z"/><path class="cls-2" d="M27.81,88.54s-2-4-6-3-4.5,3.5-4.5,5.5,2,7,10,7h94s12-1,12-12-11-13-15-10-4,6-4,6"/><path class="cls-4" d="M71.81,15.54a5.52,5.52,0,0,1,1.5,3.5c2,0,5,1,3,4l1,2s-10.5,6.5-12.5,3.5a26,26,0,0,1-3-7S65.81,15.54,71.81,15.54Z"/><path class="cls-5" d="M101.81,28.54v10s-28.78,7-31-3S101.81,28.54,101.81,28.54Z"/><path class="cls-5" d="M47.83,17.88a13.33,13.33,0,0,0-7-5.34s-.7-.94-2-3c.76-3.36,5.36-6.61,14.13-6.37,7.42.2,15.21,4.27,17.44,5.52L71,9"/><path class="cls-3" d="M76.31,23s4,1,5,2,2,4-1,5c-1,2-2,3-5,3a4.83,4.83,0,0,1-7,0,3.08,3.08,0,0,1-4-4Z"/><path class="cls-1" d="M33.41,9.91l1-9.91a13.7,13.7,0,0,1-5,2.2c-2.61.45-6.75-.19-9.14,1.56s-2.8,7.2-5.19,9l-4.78,3.5,11.12,2.13Z"/><path class="cls-5" d="M95.81,33.54v10s-28.78,7-31-3S95.81,33.54,95.81,33.54Z"/><path class="cls-3" d="M96.81,32.54c2,0,4,3,4,6s0,4-3,4-3-2-4-5S93.81,32.54,96.81,32.54Z"/><path class="cls-3" d="M98.81,26.54c2,0,4,3,4,6s0,4-3,4-3-2-4-5S95.81,26.54,98.81,26.54Z"/><path class="cls-5" d="M97.81,32.79s4.5-2.75,7.5.25,2,7-1,8a5,5,0,0,1-5-1Z"/><path class="cls-5" d="M99.81,27.79s4.5-2.75,7.5.25,2,7-1,8a5,5,0,0,1-5-1Z"/><path class="cls-3" d="M71.31,16s-20,11-23,9c-9-5-.5-7.5-.5-7.5s12-3,16-7,7-4,9-1S71.31,16,71.31,16Z"/><circle class="cls-3" cx="40.31" cy="14.04" r="4"/><path class="cls-5" d="M56.81,38.54s-7,15,3,26A28,28,0,0,0,82.31,74s19.5-7.5,15.5-22.5c-2-9-13,4-20-16C75.6,29.2,64.81,29.54,56.81,38.54Z"/><path class="cls-4" d="M59.26,23.33S55.7,22.73,55.6,25,58,30.44,61.29,27.9"/><path class="cls-6" d="M84.81,66.4l9.77-.86v5.9s8.64.14,8.64,3.6-1.73,5.18-7.77,6-10.64.86-10.64-3.46Z"/><path class="cls-5" d="M90.58,48.62a4.13,4.13,0,0,1,.57-.17c1.83-.4,14.56-.88,13.67,8.08-.69,6.87-3.73,9.38-5.57,11.53a42.81,42.81,0,0,1-7.43,5.47l-7,2c-2.16,0-3-6.63-3.22-8.78-.41-3.92-1.55-9.57-4.78-10.22C72.14,55.6,88.42,49.43,90.58,48.62Z"/><path class="cls-2" d="M94.81,49.54s-2.33,8.17-14,15"/><path class="cls-5" d="M2.19,19.34c-.16.14-.26.35-.13.52,2.16,2.9,17.21,24.39,19.75,30.67,7.5,18.5,7,27,16,33s22,5,34,5,24.5-.5,29.5-5.5,5-20,13-21c6.41-.8,8.11,2,8.61,5.84a.35.35,0,0,0,.69.05c1.3-4.82-1.37-8.69-5.8-10.4-6.5-2.5-13,1-17,12s-7,12.89-12,12c-8.5-1.5-4-26-22-29-24.66-4.11-24,2-36-7C24.44,40.75,9.31,13,2.19,19.34Z"/><path class="cls-2" d="M122.93,67.88a.35.35,0,0,0,.69.05c1.3-4.82-1.37-8.69-5.8-10.4-6.5-2.5-13,1-17,12s-7,12.89-12,12c-8.5-1.5-8-27-18-29-24.51-4.9-28,2-40-7C24.44,40.75,9.31,13,2.19,19.34c-.16.14-.26.35-.13.52"/><path class="cls-7" d="M83.48,45.62S70.31,49,63.31,46"/><path class="cls-6" d="M234.81,22.54a10.63,10.63,0,0,0-6-5.49,1.64,1.64,0,0,0-2.17,1.47c-.16,4.22,1.63,5,3.27,6.24a1.67,1.67,0,0,1,.64,1.68c-.53,2.71,0,8.57-1.72,12.09-2,4-3.91,7.52-8,8-17,2-20.9-3-26-3-6,0-8.56,2.27-9,2-4-2.48-1.2-2.1-5-4a11.92,11.92,0,0,1-2.74-1.87,1.64,1.64,0,0,0-2.75,1.19c-.06,2.61.38,5.62,2.5,6.68,4,2,6,1,6,1s-4,1-5,8,3,15,11,15,38,7,43-8c11-16,4-19,6-23s1-8,5-8c3.54,0,7.07.78,9.92-2.49a1.65,1.65,0,0,0-.36-2.44c-6.83-4.55-8.94-8-14.56-7.07C232.81,21.54,234.81,22.54,234.81,22.54Z"/><path class="cls-6" d="M236.31,21.77s.49-5.92,2.45-7.23c2,1.32,2.94,6.58,1,7.89A2.52,2.52,0,0,1,236.31,21.77Z"/><path class="cls-6" d="M229,68.57A44.21,44.21,0,0,0,235.32,73a1.24,1.24,0,0,1,.41,1.87c-1.22,1.57-2.09,2.78-2.69,3.66a2.9,2.9,0,0,1-3.36,1.12c-1.77-.62-4.18-1.25-5.36-.66A13.83,13.83,0,0,0,221,82a1.24,1.24,0,0,0,.89,2.06,74.24,74.24,0,0,1,10,.87,1.22,1.22,0,0,0,.86-.15c4.49-2.75,8.32-8.08,10.41-11.39a2.89,2.89,0,0,0-1.22-4.17c-3.62-1.69-9.41-4.66-10.09-6.7-.81-2.42-2.59,2.65-3.25,4.7A1.23,1.23,0,0,0,229,68.57Z"/><path class="cls-6" d="M183,62.94a.72.72,0,0,0-1.25.26c-.95,3.33-2.56,11.93-5,14.33-2.84,2.84.48,13.73-5,20.83a.72.72,0,0,0,.56,1.17h4.87A.72.72,0,0,0,178,99c.7-2.41,4.47-12.58,3-17.16a.72.72,0,0,1,.08-.63c5-7.56,5.69-12.24,5.79-13.41a.7.7,0,0,0-.16-.51Z"/><path class="cls-6" d="M194.81,68.54s-5,11-7,12c1,5,5,8,4,11a6.93,6.93,0,0,0,5,0s-3-10-4-11c3-4,6-8,6-11S194.81,68.54,194.81,68.54Z"/><path class="cls-8" d="M233.55,21.87s-14.09-4.49-10.74-20.29"/><path class="cls-8" d="M223.48,7.41s2.91-.59,3.59-4.55"/><path class="cls-8" d="M225.27,13.38s3.83-.77,4.72-6"/><path class="cls-8" d="M222.19,12.18s-3.63,1.8-5.25-2.88"/><path class="cls-9" d="M224.15,71.54s4.17-17.06-2.83-25.5"/><path class="cls-9" d="M234.81,61.54s1-15-13-16"/><path class="cls-9" d="M222.81,48.54s-55,6-123-12"/><path class="cls-9" d="M100.31,30s40.5,15.5,81,21"/><path class="cls-8" d="M237.15,21.62S248.31,16,241.31,1"/><path class="cls-8" d="M243.31,6a4.7,4.7,0,0,0,4.5-4"/><path class="cls-8" d="M243.87,14.37a4.7,4.7,0,0,0,5.4-2.67"/><path class="cls-8" d="M243.55,9.62s-4.58.62-6-3.23"/></g></svg>
